<svg width="128" height="128" viewBox="0 0 128 128" xmlns="http://www.w3.org/2000/svg">
  <defs>
    <linearGradient id="cyan" x1="0%" y1="0%" x2="100%" y2="100%">
      <stop offset="0%" style="stop-color:#06B6D4;stop-opacity:1" />
      <stop offset="100%" style="stop-color:#0891B2;stop-opacity:1" />
    </linearGradient>
    <linearGradient id="blue" x1="0%" y1="0%" x2="100%" y2="100%">
      <stop offset="0%" style="stop-color:#3B82F6;stop-opacity:1" />
      <stop offset="100%" style="stop-color:#2563EB;stop-opacity:1" />
    </linearGradient>
    <linearGradient id="purple" x1="0%" y1="0%" x2="100%" y2="100%">
      <stop offset="0%" style="stop-color:#8B5CF6;stop-opacity:1" />
      <stop offset="100%" style="stop-color:#7C3AED;stop-opacity:1" />
    </linearGradient>
    <radialGradient id="glow" cx="50%" cy="50%">
      <stop offset="0%" style="stop-color:#8B5CF6;stop-opacity:0.3" />
      <stop offset="100%" style="stop-color:#8B5CF6;stop-opacity:0" />
    </radialGradient>
  </defs>

  <circle cx="64" cy="64" r="55" fill="url(#glow)"/>

  <g transform="translate(64, 64)">
    <path d="M 0,-45 L 2,-35 L -2,-35 Z" fill="#8B5CF6" opacity="0.4"/>
    <path d="M 32,-32 L 30,-23 L 26,-25 Z" fill="#3B82F6" opacity="0.4"/>
    <path d="M 45,0 L 35,0 L 35,-4 Z" fill="#06B6D4" opacity="0.4"/>
    <path d="M -32,-32 L -26,-25 L -30,-23 Z" fill="#3B82F6" opacity="0.4"/>
    <path d="M -45,0 L -35,-4 L -35,0 Z" fill="#06B6D4" opacity="0.4"/>
  </g>

  <g transform="translate(14, 20)">
    <rect x="0" y="50" width="12" height="38" rx="3" fill="url(#cyan)"/>
    <rect x="20" y="35" width="12" height="53" rx="3" fill="url(#blue)"/>
    <rect x="40" y="20" width="12" height="68" rx="3" fill="url(#purple)"/>
    <rect x="60" y="30" width="12" height="58" rx="3" fill="url(#cyan)"/>
    <rect x="80" y="42" width="12" height="46" rx="3" fill="url(#blue)"/>

    <polyline points="6,50 26,35 46,20 66,30 86,42"
              fill="none"
              stroke="#06B6D4"
              stroke-width="4"
              stroke-linecap="round"
              stroke-linejoin="round"/>

    <circle cx="6" cy="50" r="5" fill="#06B6D4"/>
    <circle cx="26" cy="35" r="5" fill="#3B82F6"/>
    <circle cx="46" cy="20" r="5" fill="#8B5CF6"/>
    <circle cx="66" cy="30" r="5" fill="#06B6D4"/>
    <circle cx="86" cy="42" r="5" fill="#3B82F6"/>
  </g>
</svg>
