<svg width="128" height="128" viewBox="0 0 128 128" xmlns="http://www.w3.org/2000/svg">
  <defs>
    <linearGradient id="bgGrad" x1="0%" y1="0%" x2="100%" y2="100%">
      <stop offset="0%" style="stop-color:#1E293B;stop-opacity:1" />
      <stop offset="100%" style="stop-color:#0F172A;stop-opacity:1" />
    </linearGradient>
    <linearGradient id="cyan" x1="0%" y1="0%" x2="100%" y2="100%">
      <stop offset="0%" style="stop-color:#06B6D4;stop-opacity:1" />
      <stop offset="100%" style="stop-color:#0891B2;stop-opacity:1" />
    </linearGradient>
    <linearGradient id="blue" x1="0%" y1="0%" x2="100%" y2="100%">
      <stop offset="0%" style="stop-color:#3B82F6;stop-opacity:1" />
      <stop offset="100%" style="stop-color:#2563EB;stop-opacity:1" />
    </linearGradient>
    <linearGradient id="purple" x1="0%" y1="0%" x2="100%" y2="100%">
      <stop offset="0%" style="stop-color:#8B5CF6;stop-opacity:1" />
      <stop offset="100%" style="stop-color:#7C3AED;stop-opacity:1" />
    </linearGradient>
  </defs>

  <rect width="128" height="128" rx="24" fill="url(#bgGrad)"/>

  <g transform="translate(20, 28)">
    <rect x="0" y="0" width="88" height="72" rx="4" fill="none" stroke="#334155" stroke-width="2"/>

    <rect x="8" y="8" width="72" height="6" rx="2" fill="#334155"/>

    <rect x="8" y="18" width="22" height="6" rx="2" fill="#334155" opacity="0.5"/>
    <rect x="8" y="26" width="28" height="6" rx="2" fill="#334155" opacity="0.5"/>
    <rect x="8" y="34" width="18" height="6" rx="2" fill="#334155" opacity="0.5"/>

    <g transform="translate(42, 20)">
      <rect x="0" y="30" width="6" height="16" rx="2" fill="url(#cyan)"/>
      <rect x="9" y="20" width="6" height="26" rx="2" fill="url(#blue)"/>
      <rect x="18" y="10" width="6" height="36" rx="2" fill="url(#purple)"/>
      <rect x="27" y="15" width="6" height="31" rx="2" fill="url(#cyan)"/>

      <polyline points="3,33 12,23 21,13 30,18"
                fill="none"
                stroke="#06B6D4"
                stroke-width="2.5"
                stroke-linecap="round"
                stroke-linejoin="round"/>

      <circle cx="3" cy="33" r="2.5" fill="#06B6D4"/>
      <circle cx="12" cy="23" r="2.5" fill="#3B82F6"/>
      <circle cx="21" cy="13" r="2.5" fill="#8B5CF6"/>
      <circle cx="30" cy="18" r="2.5" fill="#06B6D4"/>
    </g>
  </g>

  <g transform="translate(70, 85)">
    <circle cx="0" cy="0" r="22" fill="#06B6D4" opacity="0.15"/>
    <circle cx="0" cy="0" r="18" fill="url(#bgGrad)"/>

    <path d="M -8,-8 L 8,-8 L 8,8 L -8,8 Z"
          fill="none"
          stroke="url(#cyan)"
          stroke-width="2.5"
          stroke-linejoin="round"/>

    <line x1="-5" y1="-2" x2="5" y2="-2" stroke="url(#cyan)" stroke-width="2" stroke-linecap="round"/>
    <line x1="-5" y1="2" x2="5" y2="2" stroke="url(#cyan)" stroke-width="2" stroke-linecap="round"/>

    <circle cx="0" cy="0" r="12" fill="none" stroke="url(#cyan)" stroke-width="1" opacity="0.3"/>
  </g>

  <g transform="translate(18, 18)">
    <circle cx="0" cy="0" r="2" fill="#06B6D4" opacity="0.4"/>
    <circle cx="92" cy="0" r="2" fill="#3B82F6" opacity="0.4"/>
    <circle cx="0" cy="92" r="2" fill="#8B5CF6" opacity="0.4"/>
    <circle cx="92" cy="92" r="2" fill="#06B6D4" opacity="0.4"/>
  </g>
</svg>
